<svg width="594" height="596" viewBox="0 0 594 596" fill="none" xmlns="http://www.w3.org/2000/svg">
<path d="M299.583 509.556C307.478 509.556 313.879 503.155 313.879 495.26C313.879 487.364 307.478 480.964 299.583 480.964C291.688 480.964 285.287 487.364 285.287 495.26C285.287 503.155 291.688 509.556 299.583 509.556Z" fill="white"/>
<path d="M243.862 502.575C251.758 502.575 258.158 496.175 258.158 488.279C258.158 480.384 251.758 473.983 243.862 473.983C235.967 473.983 229.566 480.384 229.566 488.279C229.566 496.175 235.967 502.575 243.862 502.575Z" fill="white"/>
<path d="M192.364 480.18C200.26 480.18 206.66 473.779 206.66 465.884C206.66 457.988 200.26 451.588 192.364 451.588C184.469 451.588 178.068 457.988 178.068 465.884C178.068 473.779 184.469 480.18 192.364 480.18Z" fill="white"/>
<path d="M149.267 444.183C157.162 444.183 163.562 437.782 163.562 429.887C163.562 421.991 157.162 415.591 149.267 415.591C141.371 415.591 134.971 421.991 134.971 429.887C134.971 437.782 141.371 444.183 149.267 444.183Z" fill="white"/>
<path d="M118.052 397.5C125.947 397.5 132.348 391.099 132.348 383.204C132.348 375.309 125.947 368.908 118.052 368.908C110.156 368.908 103.756 375.309 103.756 383.204C103.756 391.099 110.156 397.5 118.052 397.5Z" fill="white"/>
<path d="M101.257 343.915C109.152 343.915 115.553 337.515 115.553 329.619C115.553 321.724 109.152 315.323 101.257 315.323C93.3614 315.323 86.9609 321.724 86.9609 329.619C86.9609 337.515 93.3614 343.915 101.257 343.915Z" fill="white"/>
<path d="M100.235 287.767C108.131 287.767 114.531 281.367 114.531 273.472C114.531 265.576 108.131 259.176 100.235 259.176C92.3399 259.176 85.9395 265.576 85.9395 273.472C85.9395 281.367 92.3399 287.767 100.235 287.767Z" fill="white"/>
<path d="M115.075 233.609C122.971 233.609 129.371 227.209 129.371 219.313C129.371 211.418 122.971 205.018 115.075 205.018C107.18 205.018 100.779 211.418 100.779 219.313C100.779 227.209 107.18 233.609 115.075 233.609Z" fill="white"/>
<path d="M144.571 185.823C152.467 185.823 158.867 179.423 158.867 171.527C158.867 163.632 152.467 157.231 144.571 157.231C136.676 157.231 130.275 163.632 130.275 171.527C130.275 179.423 136.676 185.823 144.571 185.823Z" fill="white"/>
<path d="M186.337 148.284C194.232 148.284 200.633 141.884 200.633 133.988C200.633 126.093 194.232 119.692 186.337 119.692C178.441 119.692 172.041 126.093 172.041 133.988C172.041 141.884 178.441 148.284 186.337 148.284Z" fill="white"/>
<path d="M236.985 124.033C244.881 124.033 251.281 117.633 251.281 109.737C251.281 101.842 244.881 95.4414 236.985 95.4414C229.09 95.4414 222.689 101.842 222.689 109.737C222.689 117.633 229.09 124.033 236.985 124.033Z" fill="white"/>
<path d="M292.415 115.033C300.31 115.033 306.711 108.633 306.711 100.737C306.711 92.8419 300.31 86.4414 292.415 86.4414C284.52 86.4414 278.119 92.8419 278.119 100.737C278.119 108.633 284.52 115.033 292.415 115.033Z" fill="white"/>
<path d="M348.136 122.014C356.031 122.014 362.432 115.613 362.432 107.718C362.432 99.8223 356.031 93.4219 348.136 93.4219C340.24 93.4219 333.84 99.8223 333.84 107.718C333.84 115.613 340.24 122.014 348.136 122.014Z" fill="white"/>
<path d="M399.634 144.412C407.529 144.412 413.93 138.012 413.93 130.116C413.93 122.221 407.529 115.82 399.634 115.82C391.738 115.82 385.338 122.221 385.338 130.116C385.338 138.012 391.738 144.412 399.634 144.412Z" fill="white"/>
<path d="M442.731 180.409C450.627 180.409 457.027 174.009 457.027 166.113C457.027 158.218 450.627 151.817 442.731 151.817C434.836 151.817 428.436 158.218 428.436 166.113C428.436 174.009 434.836 180.409 442.731 180.409Z" fill="white"/>
<path d="M473.946 227.092C481.842 227.092 488.242 220.691 488.242 212.796C488.242 204.9 481.842 198.5 473.946 198.5C466.051 198.5 459.65 204.9 459.65 212.796C459.65 220.691 466.051 227.092 473.946 227.092Z" fill="white"/>
<path d="M490.743 280.677C498.638 280.677 505.039 274.276 505.039 266.381C505.039 258.485 498.638 252.085 490.743 252.085C482.848 252.085 476.447 258.485 476.447 266.381C476.447 274.276 482.848 280.677 490.743 280.677Z" fill="white"/>
<path d="M491.763 336.821C499.658 336.821 506.059 330.421 506.059 322.525C506.059 314.63 499.658 308.229 491.763 308.229C483.867 308.229 477.467 314.63 477.467 322.525C477.467 330.421 483.867 336.821 491.763 336.821Z" fill="white"/>
<path d="M476.921 390.982C484.816 390.982 491.217 384.582 491.217 376.686C491.217 368.791 484.816 362.391 476.921 362.391C469.025 362.391 462.625 368.791 462.625 376.686C462.625 384.582 469.025 390.982 476.921 390.982Z" fill="white"/>
<path d="M447.425 438.766C455.32 438.766 461.721 432.365 461.721 424.47C461.721 416.574 455.32 410.174 447.425 410.174C439.529 410.174 433.129 416.574 433.129 424.47C433.129 432.365 439.529 438.766 447.425 438.766Z" fill="white"/>
<path d="M405.661 476.305C413.556 476.305 419.957 469.904 419.957 462.009C419.957 454.113 413.556 447.713 405.661 447.713C397.766 447.713 391.365 454.113 391.365 462.009C391.365 469.904 397.766 476.305 405.661 476.305Z" fill="white"/>
<path d="M355.011 500.556C362.906 500.556 369.307 494.155 369.307 486.26C369.307 478.364 362.906 471.964 355.011 471.964C347.115 471.964 340.715 478.364 340.715 486.26C340.715 494.155 347.115 500.556 355.011 500.556Z" fill="white"/>
<path d="M304.224 467.805C314.21 467.805 322.307 459.709 322.307 449.722C322.307 439.735 314.21 431.639 304.224 431.639C294.237 431.639 286.141 439.735 286.141 449.722C286.141 459.709 294.237 467.805 304.224 467.805Z" fill="white"/>
<path d="M256.936 462.922C266.923 462.922 275.019 454.826 275.019 444.839C275.019 434.852 266.923 426.756 256.936 426.756C246.95 426.756 238.854 434.852 238.854 444.839C238.854 454.826 246.95 462.922 256.936 462.922Z" fill="white"/>
<path d="M213.472 443.664C223.459 443.664 231.555 435.568 231.555 425.581C231.555 415.594 223.459 407.498 213.472 407.498C203.485 407.498 195.389 415.594 195.389 425.581C195.389 435.568 203.485 443.664 213.472 443.664Z" fill="white"/>
<path d="M178.089 411.917C188.076 411.917 196.172 403.821 196.172 393.834C196.172 383.847 188.076 375.751 178.089 375.751C168.102 375.751 160.006 383.847 160.006 393.834C160.006 403.821 168.102 411.917 178.089 411.917Z" fill="white"/>
<path d="M154.245 370.789C164.232 370.789 172.328 362.693 172.328 352.706C172.328 342.719 164.232 334.623 154.245 334.623C144.258 334.623 136.162 342.719 136.162 352.706C136.162 362.693 144.258 370.789 154.245 370.789Z" fill="white"/>
<path d="M144.276 324.306C154.263 324.306 162.359 316.21 162.359 306.223C162.359 296.236 154.263 288.14 144.276 288.14C134.289 288.14 126.193 296.236 126.193 306.223C126.193 316.21 134.289 324.306 144.276 324.306Z" fill="white"/>
<path d="M149.163 277.017C159.15 277.017 167.246 268.921 167.246 258.934C167.246 248.948 159.15 240.852 149.163 240.852C139.176 240.852 131.08 248.948 131.08 258.934C131.08 268.921 139.176 277.017 149.163 277.017Z" fill="white"/>
<path d="M168.419 233.555C178.406 233.555 186.502 225.459 186.502 215.472C186.502 205.485 178.406 197.389 168.419 197.389C158.432 197.389 150.336 205.485 150.336 215.472C150.336 225.459 158.432 233.555 168.419 233.555Z" fill="white"/>
<path d="M200.167 198.171C210.154 198.171 218.25 190.075 218.25 180.088C218.25 170.101 210.154 162.005 200.167 162.005C190.18 162.005 182.084 170.101 182.084 180.088C182.084 190.075 190.18 198.171 200.167 198.171Z" fill="white"/>
<path d="M241.294 174.326C251.281 174.326 259.377 166.23 259.377 156.243C259.377 146.256 251.281 138.16 241.294 138.16C231.307 138.16 223.211 146.256 223.211 156.243C223.211 166.23 231.307 174.326 241.294 174.326Z" fill="white"/>
<path d="M287.778 164.358C297.765 164.358 305.861 156.262 305.861 146.275C305.861 136.288 297.765 128.192 287.778 128.192C277.791 128.192 269.695 136.288 269.695 146.275C269.695 156.262 277.791 164.358 287.778 164.358Z" fill="white"/>
<path d="M335.063 169.244C345.05 169.244 353.146 161.148 353.146 151.161C353.146 141.174 345.05 133.078 335.063 133.078C325.076 133.078 316.98 141.174 316.98 151.161C316.98 161.148 325.076 169.244 335.063 169.244Z" fill="white"/>
<path d="M378.526 188.502C388.513 188.502 396.609 180.406 396.609 170.419C396.609 160.432 388.513 152.336 378.526 152.336C368.539 152.336 360.443 160.432 360.443 170.419C360.443 180.406 368.539 188.502 378.526 188.502Z" fill="white"/>
<path d="M413.913 220.249C423.9 220.249 431.996 212.153 431.996 202.166C431.996 192.179 423.9 184.083 413.913 184.083C403.926 184.083 395.83 192.179 395.83 202.166C395.83 212.153 403.926 220.249 413.913 220.249Z" fill="white"/>
<path d="M437.757 261.377C447.744 261.377 455.84 253.281 455.84 243.294C455.84 233.307 447.744 225.211 437.757 225.211C427.77 225.211 419.674 233.307 419.674 243.294C419.674 253.281 427.77 261.377 437.757 261.377Z" fill="white"/>
<path d="M447.724 307.86C457.71 307.86 465.807 299.764 465.807 289.777C465.807 279.79 457.71 271.694 447.724 271.694C437.737 271.694 429.641 279.79 429.641 289.777C429.641 299.764 437.737 307.86 447.724 307.86Z" fill="white"/>
<path d="M442.839 355.145C452.826 355.145 460.922 347.049 460.922 337.062C460.922 327.076 452.826 318.979 442.839 318.979C432.852 318.979 424.756 327.076 424.756 337.062C424.756 347.049 432.852 355.145 442.839 355.145Z" fill="white"/>
<path d="M423.583 398.609C433.57 398.609 441.666 390.513 441.666 380.526C441.666 370.539 433.57 362.443 423.583 362.443C413.596 362.443 405.5 370.539 405.5 380.526C405.5 390.513 413.596 398.609 423.583 398.609Z" fill="white"/>
<path d="M391.835 433.995C401.822 433.995 409.918 425.899 409.918 415.912C409.918 405.925 401.822 397.829 391.835 397.829C381.848 397.829 373.752 405.925 373.752 415.912C373.752 425.899 381.848 433.995 391.835 433.995Z" fill="white"/>
<path d="M350.708 457.84C360.695 457.84 368.791 449.744 368.791 439.757C368.791 429.77 360.695 421.674 350.708 421.674C340.721 421.674 332.625 429.77 332.625 439.757C332.625 449.744 340.721 457.84 350.708 457.84Z" fill="white"/>
<path d="M309.939 562.726C316.754 562.726 322.279 557.201 322.279 550.386C322.279 543.571 316.754 538.047 309.939 538.047C303.124 538.047 297.6 543.571 297.6 550.386C297.6 557.201 303.124 562.726 309.939 562.726Z" fill="white"/>
<path d="M241.33 557.128C248.145 557.128 253.669 551.604 253.669 544.789C253.669 537.974 248.145 532.449 241.33 532.449C234.515 532.449 228.99 537.974 228.99 544.789C228.99 551.604 234.515 557.128 241.33 557.128Z" fill="white"/>
<path d="M176.775 533.227C183.59 533.227 189.114 527.702 189.114 520.887C189.114 514.072 183.59 508.548 176.775 508.548C169.96 508.548 164.436 514.072 164.436 520.887C164.436 527.702 169.96 533.227 176.775 533.227Z" fill="white"/>
<path d="M121.06 492.796C127.875 492.796 133.4 487.272 133.4 480.457C133.4 473.642 127.875 468.117 121.06 468.117C114.245 468.117 108.721 473.642 108.721 480.457C108.721 487.272 114.245 492.796 121.06 492.796Z" fill="white"/>
<path d="M78.3238 438.831C85.1387 438.831 90.6633 433.307 90.6633 426.492C90.6633 419.677 85.1387 414.152 78.3238 414.152C71.5089 414.152 65.9844 419.677 65.9844 426.492C65.9844 433.307 71.5089 438.831 78.3238 438.831Z" fill="white"/>
<path d="M51.7281 375.338C58.543 375.338 64.0676 369.814 64.0676 362.999C64.0676 356.184 58.543 350.659 51.7281 350.659C44.9132 350.659 39.3887 356.184 39.3887 362.999C39.3887 369.814 44.9132 375.338 51.7281 375.338Z" fill="white"/>
<path d="M43.2496 307.023C50.0645 307.023 55.589 301.498 55.589 294.683C55.589 287.868 50.0645 282.344 43.2496 282.344C36.4347 282.344 30.9102 287.868 30.9102 294.683C30.9102 301.498 36.4347 307.023 43.2496 307.023Z" fill="white"/>
<path d="M53.5172 238.955C60.3321 238.955 65.8566 233.431 65.8566 226.616C65.8566 219.801 60.3321 214.276 53.5172 214.276C46.7023 214.276 41.1777 219.801 41.1777 226.616C41.1777 233.431 46.7023 238.955 53.5172 238.955Z" fill="white"/>
<path d="M81.7691 176.18C88.584 176.18 94.1086 170.655 94.1086 163.84C94.1086 157.026 88.584 151.501 81.7691 151.501C74.9542 151.501 69.4297 157.026 69.4297 163.84C69.4297 170.655 74.9542 176.18 81.7691 176.18Z" fill="white"/>
<path d="M125.91 123.357C132.725 123.357 138.249 117.832 138.249 111.017C138.249 104.202 132.725 98.6777 125.91 98.6777C119.095 98.6777 113.57 104.202 113.57 111.017C113.57 117.832 119.095 123.357 125.91 123.357Z" fill="white"/>
<path d="M182.662 84.3996C189.477 84.3996 195.001 78.875 195.001 72.0601C195.001 65.2453 189.477 59.7207 182.662 59.7207C175.847 59.7207 170.322 65.2453 170.322 72.0601C170.322 78.875 175.847 84.3996 182.662 84.3996Z" fill="white"/>
<path d="M247.826 62.2004C254.641 62.2004 260.165 56.6758 260.165 49.8609C260.165 43.046 254.641 37.5215 247.826 37.5215C241.011 37.5215 235.486 43.046 235.486 49.8609C235.486 56.6758 241.011 62.2004 247.826 62.2004Z" fill="white"/>
<path d="M316.558 58.4055C323.373 58.4055 328.898 52.8809 328.898 46.066C328.898 39.2511 323.373 33.7266 316.558 33.7266C309.743 33.7266 304.219 39.2511 304.219 46.066C304.219 52.8809 309.743 58.4055 316.558 58.4055Z" fill="white"/>
<path d="M383.765 73.2922C390.58 73.2922 396.105 67.7676 396.105 60.9527C396.105 54.1378 390.58 48.6133 383.765 48.6133C376.95 48.6133 371.426 54.1378 371.426 60.9527C371.426 67.7676 376.95 73.2922 383.765 73.2922Z" fill="white"/>
<path d="M444.466 105.762C451.281 105.762 456.806 100.237 456.806 93.4225C456.806 86.6076 451.281 81.083 444.466 81.083C437.651 81.083 432.127 86.6076 432.127 93.4225C432.127 100.237 437.651 105.762 444.466 105.762Z" fill="white"/>
<path d="M494.154 153.404C500.969 153.404 506.493 147.88 506.493 141.065C506.493 134.25 500.969 128.726 494.154 128.726C487.339 128.726 481.814 134.25 481.814 141.065C481.814 147.88 487.339 153.404 494.154 153.404Z" fill="white"/>
<path d="M529.148 212.685C535.963 212.685 541.488 207.16 541.488 200.345C541.488 193.53 535.963 188.006 529.148 188.006C522.333 188.006 516.809 193.53 516.809 200.345C516.809 207.16 522.333 212.685 529.148 212.685Z" fill="white"/>
<path d="M546.849 279.208C553.664 279.208 559.189 273.684 559.189 266.869C559.189 260.054 553.664 254.529 546.849 254.529C540.034 254.529 534.51 260.054 534.51 266.869C534.51 273.684 540.034 279.208 546.849 279.208Z" fill="white"/>
<path d="M545.945 348.039C552.76 348.039 558.284 342.515 558.284 335.7C558.284 328.885 552.76 323.36 545.945 323.36C539.13 323.36 533.605 328.885 533.605 335.7C533.605 342.515 539.13 348.039 545.945 348.039Z" fill="white"/>
<path d="M526.505 414.076C533.32 414.076 538.845 408.552 538.845 401.737C538.845 394.922 533.32 389.397 526.505 389.397C519.691 389.397 514.166 394.922 514.166 401.737C514.166 408.552 519.691 414.076 526.505 414.076Z" fill="white"/>
<path d="M489.968 472.419C496.783 472.419 502.308 466.895 502.308 460.08C502.308 453.265 496.783 447.74 489.968 447.74C483.153 447.74 477.629 453.265 477.629 460.08C477.629 466.895 483.153 472.419 489.968 472.419Z" fill="white"/>
<path d="M439.046 518.742C445.861 518.742 451.386 513.218 451.386 506.403C451.386 499.588 445.861 494.063 439.046 494.063C432.232 494.063 426.707 499.588 426.707 506.403C426.707 513.218 432.232 518.742 439.046 518.742Z" fill="white"/>
<path d="M377.515 549.607C384.33 549.607 389.855 544.082 389.855 537.267C389.855 530.452 384.33 524.928 377.515 524.928C370.7 524.928 365.176 530.452 365.176 537.267C365.176 544.082 370.7 549.607 377.515 549.607Z" fill="white"/>
<path d="M426.32 565.299C429.835 565.299 432.684 562.449 432.684 558.934C432.684 555.419 429.835 552.569 426.32 552.569C422.805 552.569 419.955 555.419 419.955 558.934C419.955 562.449 422.805 565.299 426.32 565.299Z" fill="white"/>
<path d="M351.089 590.782C354.604 590.782 357.454 587.932 357.454 584.417C357.454 580.902 354.604 578.053 351.089 578.053C347.574 578.053 344.725 580.902 344.725 584.417C344.725 587.932 347.574 590.782 351.089 590.782Z" fill="white"/>
<path d="M271.771 595.022C275.286 595.022 278.135 592.173 278.135 588.658C278.135 585.142 275.286 582.293 271.771 582.293C268.256 582.293 265.406 585.142 265.406 588.658C265.406 592.173 268.256 595.022 271.771 595.022Z" fill="white"/>
<path d="M194.251 577.709C197.766 577.709 200.616 574.859 200.616 571.344C200.616 567.829 197.766 564.979 194.251 564.979C190.736 564.979 187.887 567.829 187.887 571.344C187.887 574.859 190.736 577.709 194.251 577.709Z" fill="white"/>
<path d="M124.277 540.119C127.792 540.119 130.641 537.269 130.641 533.754C130.641 530.239 127.792 527.39 124.277 527.39C120.762 527.39 117.912 530.239 117.912 533.754C117.912 537.269 120.762 540.119 124.277 540.119Z" fill="white"/>
<path d="M67.0404 485.049C70.5555 485.049 73.405 482.199 73.405 478.684C73.405 475.169 70.5555 472.319 67.0404 472.319C63.5253 472.319 60.6758 475.169 60.6758 478.684C60.6758 482.199 63.5253 485.049 67.0404 485.049Z" fill="white"/>
<path d="M26.7826 416.574C30.2977 416.574 33.1472 413.724 33.1472 410.209C33.1472 406.694 30.2977 403.845 26.7826 403.845C23.2675 403.845 20.418 406.694 20.418 410.209C20.418 413.724 23.2675 416.574 26.7826 416.574Z" fill="white"/>
<path d="M6.49156 339.779C10.0066 339.779 12.8562 336.93 12.8562 333.414C12.8562 329.899 10.0066 327.05 6.49156 327.05C2.97649 327.05 0.126953 329.899 0.126953 333.414C0.126953 336.93 2.97649 339.779 6.49156 339.779Z" fill="white"/>
<path d="M7.67125 260.358C11.1863 260.358 14.0359 257.509 14.0359 253.994C14.0359 250.478 11.1863 247.629 7.67125 247.629C4.15617 247.629 1.30664 250.478 1.30664 253.994C1.30664 257.509 4.15617 260.358 7.67125 260.358Z" fill="white"/>
<path d="M30.2377 184.199C33.7527 184.199 36.6023 181.349 36.6023 177.834C36.6023 174.319 33.7527 171.47 30.2377 171.47C26.7226 171.47 23.873 174.319 23.873 177.834C23.873 181.349 26.7226 184.199 30.2377 184.199Z" fill="white"/>
<path d="M72.5111 116.955C76.0262 116.955 78.8757 114.105 78.8757 110.59C78.8757 107.075 76.0262 104.226 72.5111 104.226C68.996 104.226 66.1465 107.075 66.1465 110.59C66.1465 114.105 68.996 116.955 72.5111 116.955Z" fill="white"/>
<path d="M131.363 63.6062C134.878 63.6062 137.727 60.7566 137.727 57.2416C137.727 53.7265 134.878 50.877 131.363 50.877C127.848 50.877 124.998 53.7265 124.998 57.2416C124.998 60.7566 127.848 63.6062 131.363 63.6062Z" fill="white"/>
<path d="M202.423 28.1169C205.938 28.1169 208.788 25.2674 208.788 21.7523C208.788 18.2372 205.938 15.3877 202.423 15.3877C198.908 15.3877 196.059 18.2372 196.059 21.7523C196.059 25.2674 198.908 28.1169 202.423 28.1169Z" fill="white"/>
<path d="M280.423 13.114C283.938 13.114 286.788 10.2645 286.788 6.74937C286.788 3.2343 283.938 0.384766 280.423 0.384766C276.908 0.384766 274.059 3.2343 274.059 6.74937C274.059 10.2645 276.908 13.114 280.423 13.114Z" fill="white"/>
<path d="M359.579 19.7126C363.095 19.7126 365.944 16.8631 365.944 13.348C365.944 9.83293 363.095 6.9834 359.579 6.9834C356.064 6.9834 353.215 9.83293 353.215 13.348C353.215 16.8631 356.064 19.7126 359.579 19.7126Z" fill="white"/>
<path d="M434.021 47.4216C437.536 47.4216 440.385 44.5721 440.385 41.057C440.385 37.5419 437.536 34.6924 434.021 34.6924C430.506 34.6924 427.656 37.5419 427.656 41.057C427.656 44.5721 430.506 47.4216 434.021 47.4216Z" fill="white"/>
<path d="M498.224 94.1862C501.739 94.1862 504.589 91.3367 504.589 87.8216C504.589 84.3066 501.739 81.457 498.224 81.457C494.709 81.457 491.859 84.3066 491.859 87.8216C491.859 91.3367 494.709 94.1862 498.224 94.1862Z" fill="white"/>
<path d="M547.431 156.54C550.946 156.54 553.796 153.69 553.796 150.175C553.796 146.66 550.946 143.811 547.431 143.811C543.916 143.811 541.066 146.66 541.066 150.175C541.066 153.69 543.916 156.54 547.431 156.54Z" fill="white"/>
<path d="M577.99 229.858C581.505 229.858 584.354 227.009 584.354 223.494C584.354 219.978 581.505 217.129 577.99 217.129C574.474 217.129 571.625 219.978 571.625 223.494C571.625 227.009 574.474 229.858 577.99 229.858Z" fill="white"/>
<path d="M587.632 308.703C591.147 308.703 593.997 305.853 593.997 302.338C593.997 298.823 591.147 295.974 587.632 295.974C584.117 295.974 581.268 298.823 581.268 302.338C581.268 305.853 584.117 308.703 587.632 308.703Z" fill="white"/>
<path d="M575.648 387.222C579.163 387.222 582.012 384.373 582.012 380.858C582.012 377.343 579.163 374.493 575.648 374.493C572.133 374.493 569.283 377.343 569.283 380.858C569.283 384.373 572.133 387.222 575.648 387.222Z" fill="white"/>
<path d="M542.923 459.597C546.438 459.597 549.288 456.748 549.288 453.233C549.288 449.718 546.438 446.868 542.923 446.868C539.408 446.868 536.559 449.718 536.559 453.233C536.559 456.748 539.408 459.597 542.923 459.597Z" fill="white"/>
<path d="M491.886 520.462C495.401 520.462 498.251 517.612 498.251 514.097C498.251 510.582 495.401 507.732 491.886 507.732C488.371 507.732 485.521 510.582 485.521 514.097C485.521 517.612 488.371 520.462 491.886 520.462Z" fill="white"/>
</svg>