<svg width="303" height="299" viewBox="0 0 303 299" fill="none" xmlns="http://www.w3.org/2000/svg">
<path d="M219.121 232.904C219.121 266.292 194.65 293.957 162.647 299C183.103 294.24 198.325 275.924 198.325 254.053C198.325 228.569 177.642 207.916 152.121 207.916C126.601 207.916 105.918 228.569 105.918 254.053C105.918 275.924 121.139 294.24 141.595 299C109.592 293.957 85.1211 266.292 85.1211 232.904C85.1211 195.96 115.11 166 152.121 166C189.132 166 219.121 195.96 219.121 232.904Z" fill="url(#paint0_radial_123_584)"/>
<path d="M182.723 299C182.992 298.943 183.275 298.887 183.544 298.816C251.349 283.961 302.121 223.481 302.121 151.165C302.121 67.6807 234.514 0 151.121 0C67.7278 0 0.121094 67.6807 0.121094 151.165C0.121094 222.517 49.5341 282.331 115.966 298.192M115.966 298.192C69.7099 283.479 36.6216 238.009 36.6216 186.841C36.6216 123.54 87.8894 72.2164 151.121 72.2164C214.353 72.2164 265.621 123.54 265.621 186.841C265.621 239.384 230.904 285.478 182.723 299" fill="url(#paint1_radial_123_584)"/>
<defs>
<radialGradient id="paint0_radial_123_584" cx="0" cy="0" r="1" gradientUnits="userSpaceOnUse" gradientTransform="translate(152.121 232.5) rotate(90) scale(66.5 67)">
<stop offset="0.614" stop-color="#F5CB7D"/>
<stop offset="1" stop-color="#F792C1"/>
</radialGradient>
<radialGradient id="paint1_radial_123_584" cx="0" cy="0" r="1" gradientUnits="userSpaceOnUse" gradientTransform="translate(151.121 149.5) rotate(90) scale(149.5 151)">
<stop offset="0.714" stop-color="#F5CB7D"/>
<stop offset="1" stop-color="#F792C1"/>
</radialGradient>
</defs>
</svg>
