<svg width="296" height="288" viewBox="0 0 296 288" fill="none" xmlns="http://www.w3.org/2000/svg">
<path d="M105.087 287.425C85.3793 287.366 70.49 282.149 57.7983 271.49C34.9062 252.276 27.3499 227.751 33.637 198.736C33.7193 198.348 33.8368 197.96 33.9543 197.573C35.7406 191.532 35.7993 191.509 41.2873 194.776C69.4794 211.569 106.697 208.208 131.657 186.738C137.874 181.379 143.256 175.397 147.498 168.358C150.025 164.175 150.189 164.21 153.75 167.818C173.551 187.807 178.863 220.747 166.747 246.154C160.648 258.939 151.776 269.375 140.001 276.755C128.602 283.888 115.851 287.989 105.087 287.425Z" fill="url(#paint0_radial_123_578)"/>
<path d="M199.004 286.532C182.693 286.602 169.449 282.348 157.392 274.228C153.244 271.431 153.103 270.82 156.945 267.518C167.722 258.234 175.642 246.964 179.826 233.415C188.228 206.139 183.88 181.003 165.912 158.569C162.269 154.021 162.034 153.774 167.463 151.448C195.726 139.343 221.838 143.304 244.941 163.352C258.526 175.139 266.2 190.663 267.739 208.701C270.031 235.424 260.066 257.106 238.783 273.088C226.703 282.16 212.66 286.814 199.004 286.532Z" fill="url(#paint1_radial_123_578)"/>
<path d="M0.121094 133.398C0.121094 90.3398 27.044 60.3263 63.2036 56.2837C65.5774 56.0134 67.9747 55.8842 70.372 55.7314C73.2394 55.5434 74.2148 56.7655 73.451 59.6212C70.8656 69.2692 70.2898 79.07 71.7352 88.9531C74.8494 110.212 84.5562 127.628 101.772 140.778C110.821 147.688 120.751 152.588 131.903 154.915C135.946 155.761 134.688 157.958 133.431 160.156C122.079 180.11 105.262 192.661 82.5584 196.539C61.5349 200.135 42.5561 194.823 26.0803 181.356C8.85252 167.277 0.567654 148.757 0.121094 133.398Z" fill="url(#paint2_radial_123_578)"/>
<path d="M295.121 132.422C294.769 148.099 285.273 166.678 267.435 181.097C263.451 184.317 263.486 184.141 261.241 179.287C248.127 150.884 226.21 134.702 194.833 131.835C182.365 130.695 170.343 132.704 158.885 137.605C155.289 139.144 154.49 137.91 154.032 134.725C148.485 96.6503 175.69 60.3027 213.93 54.7677C256.999 48.5276 295.18 81.573 295.121 132.422Z" fill="url(#paint3_radial_123_578)"/>
<path d="M75.4492 70.4677C75.7078 34.0496 104.017 3.37794 140.353 0.263768C172.294 -2.4626 201.896 16.1637 213.107 46.0597C215.223 51.7122 214.94 52.1705 209.076 52.5936C178.193 54.7794 149.519 78.3648 141.34 108.296C138.755 117.768 137.427 127.369 138.485 137.17C138.861 140.601 137.38 141.012 134.571 140.613C104.581 136.347 78.5869 108.696 76.1778 78.4235C75.9663 75.7677 75.6843 73.1236 75.4492 70.4677Z" fill="url(#paint4_radial_123_578)"/>
<defs>
<radialGradient id="paint0_radial_123_578" cx="0" cy="0" r="1" gradientUnits="userSpaceOnUse" gradientTransform="translate(102.353 226.32) rotate(90) scale(61.1568 69.0339)">
<stop offset="0.444" stop-color="#F6A35F"/>
<stop offset="1" stop-color="#F86250"/>
</radialGradient>
<radialGradient id="paint1_radial_123_578" cx="0" cy="0" r="1" gradientUnits="userSpaceOnUse" gradientTransform="translate(211.115 215.576) rotate(90) scale(70.9677 55.4945)">
<stop offset="0.444" stop-color="#F6A35F"/>
<stop offset="1" stop-color="#F86250"/>
</radialGradient>
<radialGradient id="paint2_radial_123_578" cx="0" cy="0" r="1" gradientUnits="userSpaceOnUse" gradientTransform="translate(67.3885 126.673) rotate(90) scale(70.9606 65.552)">
<stop offset="0.444" stop-color="#F6A35F"/>
<stop offset="1" stop-color="#F86250"/>
</radialGradient>
<radialGradient id="paint3_radial_123_578" cx="0" cy="0" r="1" gradientUnits="userSpaceOnUse" gradientTransform="translate(224.217 118.64) rotate(90) scale(64.6264 69.0957)">
<stop offset="0.444" stop-color="#F6A35F"/>
<stop offset="1" stop-color="#F86250"/>
</radialGradient>
<radialGradient id="paint4_radial_123_578" cx="0" cy="0" r="1" gradientUnits="userSpaceOnUse" gradientTransform="translate(144.88 70.3689) rotate(90) scale(70.3689 67.6604)">
<stop offset="0.444" stop-color="#F6A35F"/>
<stop offset="1" stop-color="#F86250"/>
</radialGradient>
</defs>
</svg>
