<svg width="267" height="197" viewBox="0 0 267 197" fill="none" xmlns="http://www.w3.org/2000/svg">
<path d="M253.641 119.249C248.507 129.786 232.275 159.38 196.269 174.536C163.872 188.167 123.786 186.642 96.8377 162.541C87.4214 154.112 80.2023 143.731 72.6244 133.71C66.8626 126.087 60.4281 113.891 49.5098 114.048C32.9865 114.272 22.1129 137.431 17.8532 150.704C13.1002 165.545 12.6743 181.441 13.7056 197C6.59855 184.893 2.94414 171.038 1.19541 157.116C-2.16754 130.168 1.46445 102.121 13.3693 77.7059C18.5034 67.1688 34.7352 37.5751 70.7412 22.4419C97.7569 11.0976 130.041 10.8959 156.205 24.7735C169.858 32.015 179.275 42.3504 188.108 54.7484C193.22 61.945 203.017 80.4187 212.927 82.2795C230.974 85.7097 244.673 60.3084 249.157 46.2738C253.91 31.4321 254.336 15.5367 253.304 0C260.411 12.0841 264.066 25.9618 265.792 39.8843C269.178 66.8101 265.546 94.8793 253.641 119.272V119.249Z" fill="url(#paint0_radial_123_557)"/>
<defs>
<radialGradient id="paint0_radial_123_557" cx="0" cy="0" r="1" gradientUnits="userSpaceOnUse" gradientTransform="translate(133.5 98.5) rotate(89.7838) scale(132.501 179.583)">
<stop stop-color="#C4F6CE"/>
<stop offset="1" stop-color="#9998CB"/>
</radialGradient>
</defs>
</svg>
