<svg width="274" height="275" viewBox="0 0 274 275" fill="none" xmlns="http://www.w3.org/2000/svg">
<path d="M138.55 213.73C109.932 281.434 73.3001 276.639 5.96525 273.402C-1.47552 202.992 -1.0258 168.443 60.708 139.385C-5.76827 110.041 -1.47552 73.9344 1.26366 6.06557C72.973 -2.86885 112.017 3.81148 135.974 64.5492C145.459 35.7787 160.586 12.2541 189.327 6.35246C215.124 1.06557 242.148 1.88525 268.559 0C273.751 66.8033 278.616 107.541 212.835 137.254C275.223 161.885 277.717 198.73 271.911 271.23C200.161 277.254 164.306 274.426 138.55 213.73Z" fill="url(#paint0_radial_123_558)"/>
<defs>
<radialGradient id="paint0_radial_123_558" cx="0" cy="0" r="1" gradientUnits="userSpaceOnUse" gradientTransform="translate(136.996 137.5) scale(137.082 137.418)">
<stop offset="0.21" stop-color="#C3F3CF"/>
<stop offset="0.46" stop-color="#B9DCD3"/>
<stop offset="0.97" stop-color="#9FA3DF"/>
<stop offset="1" stop-color="#9EA0E0"/>
</radialGradient>
</defs>
</svg>
