<svg width="315" height="303" viewBox="0 0 315 303" fill="none" xmlns="http://www.w3.org/2000/svg">
<path d="M257.922 194.704C274.542 228.082 276.775 258.808 261.35 270.09C247.586 280.176 223.28 272.066 199.181 251.686C191.65 282.204 176.9 303 159.864 303C142.829 303 128.078 282.204 120.548 251.686C96.4486 272.066 72.09 280.176 58.3266 270.09C43.109 258.912 45.1865 228.602 61.3909 195.536C25.4503 189.037 0.000976562 172.972 0.000976562 154.1C0.000976562 135.227 26.541 118.434 63.7281 112.195C45.3942 77.3617 42.3818 44.6597 58.3266 32.9619C72.09 22.8758 96.4486 30.9863 120.548 51.3665C128.027 20.7962 142.829 0 159.864 0C176.9 0 191.702 20.7962 199.181 51.3665C223.28 30.9863 247.586 22.8758 261.35 32.9619C277.45 44.7637 274.282 77.8296 255.585 112.975C290.487 119.682 315.001 135.591 315.001 154.1C315.001 172.608 291.577 187.737 257.922 194.704Z" fill="url(#paint0_radial_123_562)"/>
<defs>
<radialGradient id="paint0_radial_123_562" cx="0" cy="0" r="1" gradientUnits="userSpaceOnUse" gradientTransform="translate(157.501 151.5) rotate(90) scale(151.5 157.5)">
<stop stop-color="#EFDE76"/>
<stop offset="1" stop-color="#C9F7C4"/>
</radialGradient>
</defs>
</svg>
