<svg width="288" height="285" viewBox="0 0 288 285" fill="none" xmlns="http://www.w3.org/2000/svg">
<path d="M193.788 93.772C261.761 48.0955 328.126 151.972 258.283 192.903C234.17 207.033 222.616 202.309 197.404 195.81C234.836 319.766 43.0447 310.741 95.3505 192.174C68.6268 204.338 39.4611 207.71 17.3569 184.491C-30.7415 133.953 29.9788 57.3111 91.6823 90.1048C49.7574 -34.5598 245.323 -26.5912 193.778 93.7615L193.788 93.772ZM179.169 108.378C155.352 118.809 138.512 120.637 113.596 112.002C122.233 136.912 120.404 153.748 109.97 177.558C132.254 163.396 151.726 164.654 175.511 173.901C166.779 150.017 163.608 130.339 179.169 108.378Z" fill="url(#paint0_radial_123_566)"/>
<defs>
<radialGradient id="paint0_radial_123_566" cx="0" cy="0" r="1" gradientUnits="userSpaceOnUse" gradientTransform="translate(144 142.5) rotate(90) scale(142.5 144)">
<stop stop-color="#53BFF9"/>
<stop offset="1" stop-color="#EBD871"/>
</radialGradient>
</defs>
</svg>
