<svg width="265" height="273" viewBox="0 0 265 273" fill="none" xmlns="http://www.w3.org/2000/svg">
<path d="M137.685 124.391C146.851 104.975 157.92 80.9732 173.651 65.8836C253.151 -10.2501 316.952 157.85 203.059 151.142L148.02 141.895C177.648 159.514 209.64 175.829 221.081 211.068C235.293 254.715 171.133 291.027 139.093 261.584C109.681 234.583 120.536 185.565 127.544 151.126L98.0261 198.492C64.1239 245.767 4.94418 226.356 0.422529 170.105C-3.09449 126.245 45.633 115.394 80.109 121.71L123.317 130.834C100.66 120.173 77.1085 107.677 60.5217 88.3482C-7.21504 9.45601 144.315 -48.7223 146.329 58.9512L137.685 124.391Z" fill="url(#paint0_radial_123_561)"/>
<defs>
<radialGradient id="paint0_radial_123_561" cx="0" cy="0" r="1" gradientUnits="userSpaceOnUse" gradientTransform="translate(132.694 135.947) rotate(65.7338) scale(143.5 139)">
<stop stop-color="#F38FC3"/>
<stop offset="1" stop-color="#35757E"/>
</radialGradient>
</defs>
</svg>
