<svg width="269" height="273" viewBox="0 0 269 273" fill="none" xmlns="http://www.w3.org/2000/svg">
<path d="M118.119 1.07118C285.999 -18.1888 328.539 228.151 167.259 267.381C-20.1813 312.981 -68.6513 22.5012 118.119 1.07118ZM107.639 28.5012C-15.9113 49.3212 -0.0213165 266.491 154.179 243.971C287.849 224.441 266.979 1.65118 107.639 28.5012Z" fill="#47868D"/>
<path d="M128.579 42.262C201.989 37.062 252.029 120.102 214.179 183.312C177.119 245.212 80.579 244.252 50.369 177.202C22.759 115.912 60.519 47.082 128.569 42.262H128.579ZM117.979 69.892C95.599 73.712 70.579 100.302 67.489 122.782C59.449 181.272 116.699 224.262 168.989 193.282C233.299 155.182 196.649 56.462 117.979 69.892Z" fill="url(#paint0_radial_430_245)"/>
<path d="M117.878 87.0219C202.728 67.8019 206.548 198.762 124.268 186.032C72.1384 177.972 71.1384 97.6119 117.878 87.0219ZM152.388 154.272C176.228 130.432 138.178 93.3019 115.358 118.962C92.0184 145.212 130.708 175.952 152.388 154.272Z" fill="#9CBEC8"/>
<defs>
<radialGradient id="paint0_radial_430_245" cx="0" cy="0" r="1" gradientUnits="userSpaceOnUse" gradientTransform="translate(134.2 135.339) rotate(90.0411) scale(110.161 109.723)">
<stop stop-color="#F2FCFF"/>
<stop offset="1" stop-color="#47868D"/>
</radialGradient>
</defs>
</svg>
