<svg width="252" height="254" viewBox="0 0 252 254" fill="none" xmlns="http://www.w3.org/2000/svg">
<path d="M124.11 162.541C162.251 152.927 159.039 275.054 119.419 250.807C97.9717 237.663 101.205 168.326 124.11 162.541Z" fill="url(#paint0_linear_123_567)"/>
<path d="M219.762 216.822C190.555 238.26 130.856 171.258 156.062 150.333C177.162 132.824 233.913 188.638 219.762 216.822Z" fill="url(#paint1_linear_123_567)"/>
<path d="M37.6179 216.961C18.4707 190.661 80.5502 134.046 101.612 151.169C125.142 170.31 65.658 238.099 37.6179 216.961Z" fill="url(#paint2_linear_123_567)"/>
<path d="M193.262 103.796C277.87 89.1942 266.339 169.068 188.953 147.175C150.81 136.378 159.723 109.59 193.262 103.796Z" fill="url(#paint3_linear_123_567)"/>
<path d="M86.9133 115.708C110.832 143.679 44.2034 158.606 15.6241 144.757C-37.4879 119.006 59.6264 83.7824 86.9133 115.708Z" fill="url(#paint4_linear_123_567)"/>
<path d="M42.6829 34.109C68.7929 25.2455 114.718 71.561 104.557 100.086C74.4966 128.674 10.8691 44.9067 42.6829 34.109Z" fill="url(#paint5_linear_123_567)"/>
<path d="M123.762 0.632695C158.557 -8.82483 160.533 90.8724 126.705 90.9999C100.373 91.1062 93.8651 8.75129 123.762 0.632695Z" fill="url(#paint6_linear_123_567)"/>
<path d="M197.333 34.3416C205.033 32.7697 215.994 30.8792 219.739 39.5883C229.017 67.5212 184.983 114.487 156.729 103.314C133.586 85.9803 175.853 38.7599 197.333 34.3628V34.3416Z" fill="url(#paint7_linear_123_567)"/>
<defs>
<linearGradient id="paint0_linear_123_567" x1="128" y1="162" x2="128" y2="254" gradientUnits="userSpaceOnUse">
<stop stop-color="#E8E5E9"/>
<stop offset="1" stop-color="#F1DD8E"/>
</linearGradient>
<linearGradient id="paint1_linear_123_567" x1="186" y1="147" x2="186" y2="221" gradientUnits="userSpaceOnUse">
<stop stop-color="#E8E5E9"/>
<stop offset="1" stop-color="#F1DD8E"/>
</linearGradient>
<linearGradient id="paint2_linear_123_567" x1="70.5" y1="148" x2="70.5" y2="221" gradientUnits="userSpaceOnUse">
<stop stop-color="#E8E5E9"/>
<stop offset="1" stop-color="#F1DD8E"/>
</linearGradient>
<linearGradient id="paint3_linear_123_567" x1="208" y1="102" x2="208" y2="151" gradientUnits="userSpaceOnUse">
<stop stop-color="#E8E5E9"/>
<stop offset="1" stop-color="#F1DD8E"/>
</linearGradient>
<linearGradient id="paint4_linear_123_567" x1="46" y1="103" x2="46" y2="150" gradientUnits="userSpaceOnUse">
<stop stop-color="#E8E5E9"/>
<stop offset="1" stop-color="#F1DD8E"/>
</linearGradient>
<linearGradient id="paint5_linear_123_567" x1="70" y1="33" x2="70" y2="106" gradientUnits="userSpaceOnUse">
<stop stop-color="#E8E5E9"/>
<stop offset="1" stop-color="#F1DD8E"/>
</linearGradient>
<linearGradient id="paint6_linear_123_567" x1="127.5" y1="0" x2="127.5" y2="91" gradientUnits="userSpaceOnUse">
<stop stop-color="#E8E5E9"/>
<stop offset="1" stop-color="#F1DD8E"/>
</linearGradient>
<linearGradient id="paint7_linear_123_567" x1="185.5" y1="33" x2="185.5" y2="105" gradientUnits="userSpaceOnUse">
<stop stop-color="#E8E5E9"/>
<stop offset="1" stop-color="#F1DD8E"/>
</linearGradient>
</defs>
</svg>
