<svg width="304" height="303" viewBox="0 0 304 303" fill="none" xmlns="http://www.w3.org/2000/svg">
<path d="M152.533 302.99C143.422 285.29 133.935 268.53 126.104 251.056C120.155 237.79 111.496 236.325 99.2975 240.533C81.7906 246.621 64.1709 252.333 45.2334 258.646C51.8596 237.903 57.5823 218.587 64.2838 199.61C67.8981 189.426 64.7732 183.902 55.5492 179.392C37.327 170.486 19.4061 160.903 0.958008 151.358C20.3096 141.249 39.0213 131.291 57.8835 121.746C65.4133 117.95 67.4463 113.178 64.6226 104.948C57.8835 85.3318 51.9725 65.4149 45.384 44.4834C65.1497 50.7215 84.3884 56.4335 103.364 62.9723C113.19 66.3544 119.289 64.5506 124.033 54.8552C132.956 36.6294 142.745 18.8545 152.646 0.0273438C160.628 15.9233 169.061 31.0301 175.876 46.8133C182.841 63.0474 192.667 68.1958 209.609 61.2061C224.857 54.9304 240.82 50.4585 259.005 44.3706C252.642 64.964 247.56 83.7535 241.009 102.017C237.056 113.028 240.105 118.815 250.12 123.625C267.965 132.231 285.397 141.7 303.996 151.321C285.999 160.528 268.267 169.885 250.27 178.678C239.729 183.827 237.056 190.591 241.235 201.865C247.936 219.902 253.245 238.467 259.683 258.496C241.536 252.559 223.878 247.373 206.673 240.984C192.743 235.836 183.895 238.279 177.683 252.822C170.454 269.77 161.23 285.891 152.533 302.99Z" fill="url(#paint0_radial_123_559)"/>
<defs>
<radialGradient id="paint0_radial_123_559" cx="0" cy="0" r="1" gradientUnits="userSpaceOnUse" gradientTransform="translate(152.496 151.509) scale(151.651 151.368)">
<stop offset="0.21" stop-color="#576C6F"/>
<stop offset="0.36" stop-color="#6D686A"/>
<stop offset="0.69" stop-color="#A6605E"/>
<stop offset="1" stop-color="#E35752"/>
</radialGradient>
</defs>
</svg>
