<svg width="280" height="271" viewBox="0 0 280 271" fill="none" xmlns="http://www.w3.org/2000/svg">
<path d="M141.007 174.467C141.993 207.054 153.561 228.595 174.813 245.175C181.745 250.572 189.732 255.234 181.859 265.407C173.459 276.27 166.046 267.29 160.285 262.743C136.99 244.349 122.669 220.305 118.308 190.565C117.551 185.49 119.616 179.68 114.337 174.146C98.3406 195.021 98.616 218.054 102.311 241.685C102.77 244.647 103.964 247.518 104.973 250.388C107.796 258.472 104.239 263.409 96.8259 265.798C88.8619 268.37 85.8782 262.72 83.7438 256.704C72.9798 226.459 75.1142 197.087 89.8028 168.519C92.1438 163.972 97.4914 160.39 94.5537 152.077C73.5535 160.022 58.7731 173.778 49.5468 193.781C47.5271 198.19 45.9664 202.806 44.3828 207.399C41.8123 214.839 37.0385 218.353 29.0515 216.286C19.481 213.806 21.2252 206.756 23.1302 200.211C32.5171 167.83 53.6091 145.555 83.4913 131.087C87.7832 128.997 92.2357 127.298 98.9144 124.404C74.5175 115.563 53.4025 119.122 32.8384 129.158C27.9499 131.546 23.4056 134.692 18.9531 137.839C12.7563 142.225 7.63825 140.732 2.93329 135.542C-2.98807 129.02 1.07426 124.634 6.14643 120.477C29.9696 101.003 57.1206 93.1264 87.6684 97.1452C93.5439 97.926 99.2816 101.049 108.164 97.1682C94.1865 78.429 76.124 70.3914 54.5501 67.7275C44.2451 66.4644 26.8482 71.9989 29.1204 53.8339C31.2089 37.1845 47.8943 44.5791 57.855 45.2451C89.252 47.3808 113.282 64.2369 136.095 92.2767C136.898 60.218 123.128 41.2033 103.964 24.7147C99.9931 21.2929 93.475 19.8002 93.934 12.9797C94.2553 7.99641 96.4586 3.31162 101.072 0.946257C106.259 -1.74061 110.459 1.86484 114.292 4.66653C145.918 27.723 162.03 58.7024 161.066 101.302C176.787 80.1284 181.699 59.4372 178.164 36.5644C177.338 31.1907 176.099 25.7711 174.286 20.6499C171.485 12.7042 174.102 7.69787 181.584 4.82728C190.787 1.29073 193.541 8.15716 195.905 14.4265C206.463 42.696 204.512 70.3455 191.499 97.4897C188.745 103.231 183.053 107.893 184.2 117.63C206.922 111.108 219.591 95.1703 229.414 76.1785C231.915 71.3559 233.27 65.9592 235.289 60.884C238.479 52.8464 244.584 52.2723 251.768 54.6836C260.008 57.4393 258.837 63.525 256.771 69.5647C246.375 100.131 228.886 124.68 198.132 137.747C192.095 140.319 186.036 142.868 177.912 146.313C206.692 154.189 231.732 151.686 254.706 135.841C262.188 130.674 269.234 125.438 276.372 135.404C284.795 147.185 272.47 149.987 266.778 154.258C242.06 172.791 213.876 177.223 183.879 172.4C180.368 171.826 176.971 169.828 171.348 173.962C181.859 190.198 198.292 196.307 215.483 201.106C218.925 202.071 222.735 201.657 226.338 202.163C236.299 203.518 251.653 198.695 250.07 216.102C248.67 231.672 234.257 225.862 225.352 225.472C190.718 223.979 165.036 205.63 140.984 174.421L141.007 174.467Z" fill="url(#paint0_radial_123_576)"/>
<defs>
<radialGradient id="paint0_radial_123_576" cx="0" cy="0" r="1" gradientUnits="userSpaceOnUse" gradientTransform="translate(139.615 135.281) rotate(90) scale(135.281 139.615)">
<stop stop-color="#55BDFE"/>
<stop offset="1" stop-color="#EB93C9"/>
</radialGradient>
</defs>
</svg>
